<svg xmlns="http://www.w3.org/2000/svg" xmlns:xlink="http://www.w3.org/1999/xlink" version="1.1" x="0px" y="0px" viewBox="250 125 100 125" enable-background="new 250 125 100 100" xml:space="preserve"><path d="M342.3,140.6c-0.5,1-1.7,3.4-1.8,4.8s0.9,4.5,1.3,5.6c0.4,1.1,1.7,7.7,2.7,11.4c1,3.8,0.3,7-0.6,12.1  c-1.1,6.6-6.8,11.3-7.3,11.9c-0.5,0.7-1.5,2.7-1.5,2.7l-0.3-0.6c0,0-0.2,0.4-0.6,0.8c-0.3,0.4-1.3,1-1.3,1l-0.3-0.5l-1.6,2.2  l-0.2-0.5l-0.3,1l-0.3-0.8c-0.3,0.4-0.6,2.4-0.3,3.3s-0.4,2-0.6,2.3c-0.3,0.3-0.7,0.4-0.6,0.7c0.1,0.3,4,9.3,4.5,9.6  c0.5,0.3,1.7,0.6,2.4,0.6c0.7,0,1.5-0.1,1.5-0.1s1.4-0.5,2.1,0.6c-0.5-0.4-1.5,0.1-1.5,0.1s1.7-0.2,1.7,1.2  c-0.6-0.6-1.3-0.4-1.3-0.4s-0.1,0.3-0.6,0.3c-0.5,0-5.4-0.1-6.6-0.3c0.1,0.4,0.9,0.8,1.5,0.9s1.8,0.2,3.2-0.2  c1.5-0.5,1.9,0.8,1.9,0.8s-0.4-0.4-1.4,0c1.1-0.2,2.2,0.5,1.9,1.2c-0.7-0.6-1.5-0.3-1.5-0.3s-0.1,0.1-0.4,0.3c-0.3,0.2-1,0-2.2,0  c-1.2,0-7.4-0.3-8.3-0.3s-0.7-0.1-1-0.7c-0.5,0-1.9,0.5-1.9,0.5c0.6-1.2,1.8-1.1,1.8-1.1s3-0.2,3.4-0.3c0.5-0.1,0.5-0.4,0.5-0.4  s-1.5,0-1.8,0s-0.7,0.1-1.7,0.2c0.4-0.6,1.2-0.7,1.7-0.8s1.5-0.3,1.7-0.4c0.1-0.1,0-0.5,0-0.5s-1.3-4.9-2.6-7.1  c-1.3-2.3-1.8-4.1-1.9-5.1c-0.1-1,0.7-2.3,1.1-2.7c0.3-0.4,0.2-0.7-0.1-0.7c-0.4,0-0.8,0.1-0.8,0.1s0.1-0.4-0.2-0.5  c-0.3-0.1-0.8,0.2-0.8,0.2s0-0.5-0.5-0.5s-1.1,0.3-1.1,0.3s0.3-0.6,0-0.6c-0.3,0-1.1,0.2-1.1,0.2s0.1-0.3-0.1-0.3  c-0.2-0.1-0.6,0.1-0.6,0.1s-0.1-0.3-0.4-0.4c-0.3-0.1-1.8-0.3-5.1-1.5c-3.4-1.1-11.2-0.6-11.2-0.6s-1.1,0.7-2,1.2s-1.5,0.4-1.5,0.4  s-4.9,2.4-6.3,3.1c-1.5,0.7-2.1,0.5-2.1,0.5s-2.4,1.7-3.6,2.2c-1.2,0.5-2.2,0.6-2.2,0.6s-2.9,1.7-3.6,2.1s-1.7,0.5-1.7,0.5  s-2.5,1.2-3.3,1.7c-0.8,0.4-1.2-0.1-1.2-0.1s-2.1,1.5-3.2,2.1s-2,0.2-2,0.2s-0.4,0.1-0.9,0.6c-0.5,0.5-1,0.2-1,0.2  s-8.9,4.9-10.3,5.7c-1.4,0.8-1.9,0.4-2.7,0.2c-0.7-0.2-0.3-1.6,0.3-1.9c0.6-0.3,37.1-18.5,41.7-20.1c2.1-1.6,3.5-3,6.2-4  c2.6-3,6.9-7,9.1-8.7c2.2-1.6,5-4,9.2-9c4.2-5,6-5,6.8-6.3c0.9-1.3,0.5-3,0.2-4.6c-0.2-1.7-0.1-3,0.2-5.4s2.1-3.9,3-5.1  c0.8-1.2,3.7-1.9,4.2-2.3c0.5-0.3,1.2-0.6,1.8-1.3c0.5-0.6,2.4-3.8,5.3-4.1C343,139.1,342.7,139.8,342.3,140.6z M327.5,201  c0.1,0.3,2.2,6.5,2.5,7.2c0.3,0.7,0.6,0.2,0.9-0.3c0.4-0.5-0.5-1.8-0.7-2.5c-0.2-0.8-2.7-6-2.7-6s-0.4,0-0.5,0.3  C327,199.9,327.4,200.7,327.5,201z M323.9,174.9c2.8-0.1,5.4-0.3,8.3-1.7c2-1,5-3.4,5-3.4s1.5,0.9-0.9,3.4c-6,6.3-13.1,6.9-13.5,7.3  c-1.1,0.9-3.6,4.4-3.3,6.9c0.2,1.7,2.2,2.6,5.1,3.2c3.4,0.7,6.8-0.8,8.8-2.5c2.3-1.8,8-7.5,8.2-9.8c0.1-0.7-2-8.1-3.5-11.3  c-1.6-3.1-2-2.6-6-1.8c-4,0.9-12.6,7.7-15.5,9.8c0,0,0.7,0,1.8,0c0.2,0,1.3-0.2,1.3-0.2s-0.1,0.1,0.2,0.1c0.3,0,1.2-0.1,1.2-0.1  s-0.1,0.1,0.4,0.1c0.2,0,1-0.1,1-0.1s0.1,0.1,0.3,0.1c0.2,0,0.8-0.1,0.8-0.1S323.6,174.9,323.9,174.9z M336.4,147  c-0.5,0-0.9,0.4-0.9,0.9c0,0.5,0.4,0.9,0.9,0.9s0.9-0.4,0.9-0.9C337.2,147.4,336.8,147,336.4,147z"/></svg>
